<?xml version="1.0" standalone="no"?>
<!DOCTYPE svg PUBLIC "-//W3C//DTD SVG 20010904//EN"
 "http://www.w3.org/TR/2001/REC-SVG-20010904/DTD/svg10.dtd">
<svg version="1.0" xmlns="http://www.w3.org/2000/svg"
 width="300.000000pt" height="300.000000pt" viewBox="0 0 300.000000 300.000000"
 preserveAspectRatio="xMidYMid meet">
<metadata>
Created by potrace 1.10, written by Peter Selinger 2001-2011
</metadata>
<g transform="translate(0.000000,300.000000) scale(0.100000,-0.100000)"
fill="#000000" stroke="none">
<path d="M1307 2289 c-17 -10 -65 -105 -70 -140 -2 -9 -9 -24 -16 -33 -7 -9
-11 -23 -7 -31 3 -9 2 -13 -4 -10 -6 3 -13 -2 -16 -12 -13 -35 -116 -278 -144
-338 -57 -121 -56 -162 2 -185 42 -17 291 -128 381 -169 92 -42 97 -41 97 17
0 26 5 100 12 165 11 102 15 117 30 117 10 0 21 6 23 13 4 9 31 11 103 9 l98
-4 57 146 c31 81 59 157 63 171 9 36 -26 64 -141 114 -55 23 -119 51 -142 62
-24 10 -45 19 -48 19 -3 0 -55 23 -116 50 -116 52 -132 56 -162 39z m63 -44
c10 -12 7 -15 -14 -21 -33 -8 -51 -38 -59 -97 -4 -31 -14 -55 -27 -65 -12 -10
-22 -29 -24 -43 -1 -14 -10 -36 -19 -49 -9 -14 -17 -37 -17 -52 0 -16 -9 -37
-20 -48 -11 -11 -20 -31 -20 -44 0 -14 -6 -31 -13 -38 -21 -20 -37 -54 -37
-76 0 -11 -7 -25 -15 -32 -16 -13 -20 -47 -9 -75 8 -21 56 -45 90 -45 16 0 34
-9 45 -24 14 -17 34 -27 67 -32 26 -3 56 -15 68 -26 31 -28 88 -34 119 -14 20
13 25 24 23 51 -1 19 4 41 11 47 13 13 11 -28 -5 -144 l-6 -37 -61 23 c-34 13
-107 45 -162 71 -55 26 -120 56 -145 66 -92 41 -95 43 -92 75 2 16 9 36 16 44
8 8 16 28 20 43 4 15 20 56 36 89 17 34 30 68 30 75 0 7 20 54 45 103 25 49
45 95 45 101 0 6 19 51 42 100 42 90 61 107 88 74z m70 -72 c8 -3 49 -20 90
-39 41 -18 122 -51 180 -74 58 -23 109 -45 114 -50 12 -12 -23 -90 -40 -90 -7
0 -15 4 -18 9 -3 4 -27 16 -53 26 -62 23 -272 110 -340 141 -29 13 -53 28 -53
33 0 6 8 26 18 45 l17 34 35 -15 c19 -8 42 -17 50 -20z m-82 -146 c14 -11 16
-43 4 -51 -11 -7 -80 12 -87 24 -3 4 -1 20 5 34 9 24 12 25 37 14 15 -7 34
-16 41 -21z m120 -47 c28 -17 31 -23 22 -40 -12 -23 -37 -25 -75 -8 -25 11
-30 24 -19 52 8 21 32 20 72 -4z m-168 -35 c31 -16 34 -23 24 -49 -8 -20 -37
-20 -75 0 -20 10 -29 20 -25 30 3 9 6 20 6 25 0 14 38 11 70 -6z m295 -15 c20
-7 26 -16 23 -33 -6 -41 -98 -31 -98 12 0 33 25 40 75 21z m211 -83 c-14 -30
-26 -59 -26 -65 0 -7 -4 -12 -9 -12 -5 0 -8 -7 -7 -16 0 -9 -4 -19 -9 -21 -17
-5 -11 39 9 69 12 18 15 36 11 60 -6 30 -4 35 22 44 15 5 29 7 31 3 2 -4 -8
-32 -22 -62z m-379 41 c36 -13 40 -24 20 -53 -25 -34 -105 4 -93 43 8 25 25
27 73 10z m288 -15 c37 -17 47 -49 20 -59 -14 -6 -85 21 -85 32 0 8 20 44 25
44 2 0 20 -8 40 -17z m-456 -28 c23 -11 27 -19 24 -40 -6 -29 -29 -33 -73 -10
-31 16 -34 23 -24 49 8 20 36 20 73 1z m298 -14 c24 -15 30 -25 26 -40 -6 -24
-25 -26 -72 -10 -31 11 -37 23 -25 53 8 21 32 20 71 -3z m-164 -43 c20 -10 23
-54 4 -61 -18 -7 -87 23 -87 38 0 33 12 45 39 39 14 -4 34 -11 44 -16z m314
-18 c14 0 -5 -45 -20 -48 -28 -6 -77 18 -77 37 0 32 20 41 58 26 19 -8 36 -15
39 -15z m-479 -26 c26 -17 27 -24 9 -48 -12 -16 -18 -17 -50 -7 -44 15 -51 24
-43 58 6 21 11 24 34 18 15 -3 37 -13 50 -21z m287 -8 c37 -16 44 -36 21 -55
-10 -8 -22 -7 -49 4 -40 17 -51 29 -43 50 7 19 27 19 71 1z m-176 -37 c25 -9
31 -16 31 -41 0 -30 -1 -30 -37 -25 -46 8 -67 28 -58 56 7 24 19 26 64 10z
m-172 -41 c24 -9 33 -18 33 -34 0 -34 -20 -44 -56 -29 -38 16 -47 29 -39 55 7
23 16 24 62 8z m307 -18 c27 -10 36 -43 15 -56 -18 -11 -89 17 -89 36 0 32 26
39 74 20z m-141 -59 c5 -5 4 -19 -3 -31 -9 -18 -17 -20 -43 -14 -40 8 -57 21
-57 43 0 33 20 41 59 25 20 -8 40 -19 44 -23z m107 -36 c34 -17 40 -49 13 -64
-22 -11 -93 15 -93 34 0 46 29 56 80 30z"/>
<path d="M1070 2058 c-16 -29 -30 -62 -30 -72 0 -11 -3 -16 -7 -12 -12 11 -51
-64 -46 -87 4 -17 2 -19 -5 -8 -8 11 -14 6 -28 -25 -10 -21 -20 -42 -22 -46
-2 -5 3 -8 10 -8 22 0 99 70 92 82 -4 7 -2 8 5 4 14 -9 43 12 35 25 -3 5 0 8
8 7 7 -2 12 5 12 15 -1 9 3 17 10 17 6 0 17 14 23 30 7 18 7 28 1 24 -5 -3
-15 2 -22 12 -11 15 -11 23 0 50 23 55 -3 49 -36 -8z"/>
<path d="M924 1661 c-28 -14 -62 -34 -75 -44 -22 -16 -23 -19 -9 -41 28 -45
131 -161 141 -158 5 1 9 -2 9 -8 0 -19 183 -216 234 -253 l29 -21 -6 79 c-4
43 -12 91 -19 105 -11 26 -68 58 -68 39 0 -5 4 -9 8 -9 15 0 42 -58 42 -89 0
-37 -8 -39 -38 -8 -140 140 -232 238 -232 248 0 6 -17 30 -37 53 -30 33 -34
41 -20 44 9 2 17 7 17 12 0 4 10 10 23 12 20 4 23 0 23 -28 0 -18 7 -41 16
-51 8 -10 18 -30 21 -44 5 -21 24 -34 99 -68 51 -23 98 -41 105 -41 6 0 13 -4
15 -8 3 -7 299 -142 311 -142 3 0 7 11 10 25 5 31 8 29 -188 113 -198 85 -339
152 -343 163 -2 5 -10 9 -18 9 -9 0 -14 11 -14 30 0 17 4 30 9 30 5 0 12 11
15 24 3 13 9 31 12 40 9 22 -12 19 -72 -13z"/>
<path d="M1846 1654 c-4 -10 2 -14 18 -14 14 0 32 -3 42 -7 11 -4 15 -3 11 4
-4 6 -20 16 -36 21 -23 8 -31 7 -35 -4z"/>
<path d="M1945 1626 c20 -14 17 -15 -126 -66 -34 -12 -37 -17 -43 -64 -3 -28
-5 -71 -5 -96 1 -37 4 -31 14 37 15 94 19 103 47 103 11 0 32 7 48 16 54 32
74 -6 51 -96 -5 -19 -12 -66 -16 -103 l-7 -68 -40 6 c-25 5 -38 4 -35 -2 4 -6
-13 -16 -36 -23 -23 -8 -46 -17 -52 -20 -5 -4 -45 -15 -87 -25 -81 -20 -108
-14 -95 18 13 35 237 98 237 67 0 -5 5 -10 10 -10 23 0 8 19 -24 30 -30 9 -45
6 -132 -26 -55 -20 -104 -41 -110 -48 -18 -17 -27 -96 -12 -96 15 0 391 100
397 105 6 7 29 141 42 244 11 96 11 102 -7 116 -10 8 -23 15 -28 15 -6 0 -1
-6 9 -14z"/>
<path d="M1732 1585 c1 -11 -4 -30 -11 -43 -7 -13 -10 -28 -7 -35 2 -7 5 -5 5
5 1 9 9 23 19 30 16 11 16 16 5 38 -11 20 -13 21 -11 5z"/>
<path d="M1180 1096 c-3 -2 -4 -70 -2 -150 3 -138 4 -146 23 -146 19 0 19 6
17 147 -3 124 -5 148 -18 151 -9 1 -18 1 -20 -2z"/>
<path d="M68 1026 c-16 -8 -28 -11 -28 -5 0 5 -8 9 -17 9 -16 0 -18 -14 -18
-160 l0 -160 24 0 c22 0 23 2 16 55 -3 30 -4 55 0 55 3 0 17 -7 31 -16 21 -14
31 -15 63 -6 56 17 74 43 79 112 4 57 3 61 -31 95 -39 39 -73 45 -119 21z m92
-46 c31 -31 28 -102 -6 -129 -57 -45 -114 -13 -114 64 0 33 6 50 22 65 28 26
72 26 98 0z"/>
<path d="M263 919 c2 -116 3 -119 25 -119 21 0 22 4 22 78 0 86 9 103 63 116
36 9 33 40 -4 44 -19 2 -33 -5 -48 -24 -19 -24 -21 -25 -21 -7 0 12 -8 23 -20
26 -19 5 -19 0 -17 -114z"/>
<path d="M455 1009 c-31 -28 -35 -36 -35 -81 0 -84 44 -133 116 -131 87 3 141
102 99 183 -34 65 -122 79 -180 29z m127 -26 c40 -46 28 -128 -20 -139 -15 -3
-32 -7 -38 -9 -23 -7 -55 32 -61 73 -8 60 15 92 66 92 24 0 44 -7 53 -17z"/>
<path d="M732 1027 c-69 -39 -78 -157 -15 -206 35 -28 96 -28 125 1 l21 21 -6
-33 c-4 -18 -12 -39 -18 -46 -18 -22 -65 -26 -100 -9 -26 14 -33 15 -40 3 -14
-22 -11 -28 26 -44 44 -18 79 -18 116 2 46 24 59 66 59 199 0 108 -1 115 -20
115 -11 0 -20 -4 -20 -9 0 -6 -12 -3 -27 5 -34 17 -70 17 -101 1z m122 -62
c12 -31 6 -83 -11 -103 -49 -58 -123 -20 -123 63 0 44 18 69 55 77 25 6 71
-16 79 -37z"/>
<path d="M974 1006 c-30 -30 -34 -40 -34 -86 0 -46 4 -56 34 -86 29 -29 41
-34 79 -34 28 0 53 7 67 18 20 16 21 19 6 31 -13 11 -20 11 -28 3 -16 -16 -69
-14 -91 3 -10 7 -21 31 -24 53 -5 34 -1 45 20 66 29 29 63 33 93 12 13 -10 23
-11 31 -4 20 16 16 26 -17 43 -50 26 -97 20 -136 -19z"/>
<path d="M1301 1015 c-59 -50 -62 -129 -6 -189 18 -20 34 -26 65 -26 23 0 50
5 60 10 13 7 21 7 25 0 3 -5 14 -10 23 -10 15 0 17 15 20 115 2 96 0 117 -13
121 -8 4 -22 1 -29 -6 -11 -8 -20 -8 -35 -1 -34 18 -78 13 -110 -14z m105 -20
c41 -11 48 -115 12 -146 -54 -44 -128 -4 -128 68 1 40 12 60 45 80 19 11 27
11 71 -2z"/>
<path d="M1556 1019 c-46 -36 -25 -102 37 -114 63 -13 68 -16 65 -38 -2 -17
-11 -23 -37 -25 -19 -2 -45 2 -58 9 -19 10 -26 10 -36 0 -21 -21 27 -51 82
-51 61 0 91 21 91 64 0 40 -13 52 -77 75 -35 12 -48 22 -48 36 0 16 7 20 35
20 19 -1 45 -4 56 -8 17 -6 23 -3 27 12 4 15 -2 22 -26 30 -46 16 -81 13 -111
-10z"/>
<path d="M1766 1017 c-28 -28 -34 -68 -13 -85 7 -6 35 -19 62 -30 35 -14 51
-26 53 -41 3 -18 -2 -21 -32 -21 -19 0 -47 5 -61 12 -20 9 -28 9 -38 -1 -21
-22 27 -51 84 -51 58 0 89 24 89 70 0 23 -7 35 -32 50 -18 11 -40 20 -49 20
-26 0 -51 24 -43 43 7 19 45 23 76 6 16 -8 24 -8 35 3 20 21 -4 39 -61 45 -38
5 -48 2 -70 -20z"/>
<path d="M2040 1029 c-13 -6 -28 -15 -32 -22 -5 -8 -8 -6 -8 6 0 10 -8 17 -20
17 -19 0 -20 -7 -20 -115 0 -108 1 -115 20 -115 18 0 20 7 20 65 0 85 13 112
62 127 26 8 38 16 36 27 -4 19 -25 23 -58 10z"/>
<path d="M2173 1021 c-41 -26 -53 -49 -53 -105 0 -53 33 -99 84 -116 45 -15
111 11 131 51 25 48 19 114 -13 150 -37 41 -102 50 -149 20z m118 -40 c17 -18
29 -40 29 -56 0 -33 -24 -81 -45 -89 -80 -30 -149 48 -110 124 29 55 82 64
126 21z"/>
<path d="M2432 1015 c-72 -60 -59 -170 25 -210 112 -53 219 102 135 196 -23
25 -38 33 -78 36 -43 5 -54 2 -82 -22z m127 -32 c12 -10 24 -35 28 -55 5 -32
1 -41 -25 -68 -20 -19 -40 -30 -59 -30 -33 0 -73 32 -73 58 0 9 -3 26 -6 37
-3 13 3 31 16 48 26 33 85 37 119 10z"/>
<path d="M2667 1033 c-2 -5 -4 -59 -6 -120 -2 -108 -1 -113 19 -113 18 0 20 6
20 78 0 69 3 81 23 100 32 30 65 28 77 -4 6 -14 10 -59 10 -100 0 -67 2 -74
20 -74 18 0 20 7 20 83 0 93 13 117 64 117 40 0 60 -54 53 -138 -6 -56 -4 -63
10 -60 15 3 17 16 15 98 -3 87 -5 97 -28 118 -29 26 -70 29 -102 6 -20 -14
-24 -14 -44 0 -30 22 -74 20 -97 -3 -19 -19 -19 -19 -24 0 -5 19 -22 26 -30
12z"/>
</g>
</svg>
